<svg xmlns="http://www.w3.org/2000/svg" viewBox="0 0 512 512" role="img" aria-label="WhatsApp">
  <circle cx="256" cy="256" r="256" fill="#25D366"/>
  <path
    fill="#FFFFFF"
    d="M256 92c-90.7 0-164 73.3-164 164 0 28.5 7.3 55.3 20.2 78.8L92 420l87.8-20.5c22.6 12.2 48.3 18.5 76.2 18.5 90.7 0 164-73.3 164-164S346.7 92 256 92zm0 295c-24.6 0-48.7-6.6-69.8-19.2l-5-3L132 376l11.4-47.3-3.2-5.1C127 302.2 120 279.7 120 256c0-75 61-136 136-136s136 61 136 136-61 136-136 136zm74.9-101.2c-4.1-2.1-24.3-12-28.1-13.4-3.8-1.4-6.6-2.1-9.4 2.1-2.8 4.1-10.8 13.4-13.3 16.2-2.5 2.8-4.9 3.1-9 1-24.5-12.2-40.6-21.8-57-49.3-4.3-7.4 4.4-6.9 12.4-23.2 1.4-2.8.7-5.2-.3-7.2-1-2.1-9.3-22.5-12.8-30.8-3.4-8.2-6.9-7.1-9.4-7.2h-7.9c-2.8 0-7.2 1-11 5.2-3.8 4.1-14.4 14.1-14.4 34.4s14.8 40 16.8 42.8c2.1 2.8 28.9 44.2 70 61.8 26 11.2 36.2 12.2 49.3 10.4 7.9-1.1 24.4-9.9 27.8-19.4 3.4-9.6 3.4-17.8 2.4-19.5-1-1.8-3.8-2.9-7.9-5z"
  />
  <path
    fill="#FFFFFF"
    d="M255.5 142c-63.5 0-115 51.5-115 115 0 22.1 6.3 43.4 18.1 61.7l2.6 4.1-10.8 43.6 44.8-10.3 3.9 2.3c17.2 10.3 37 15.7 56.4 15.7 63.5 0 115-51.5 115-115s-51.5-117.1-115-117.1z"
    opacity="0.08"
  />
</svg>
